<svg width="34" height="32" viewBox="0 0 34 32" fill="none" xmlns="http://www.w3.org/2000/svg">
<g clip-path="url(#clip0_1_891)">
<path d="M7.79644 19.3378L6.66485 23.4961L2.52893 23.5822C1.2929 21.3255 0.591797 18.7436 0.591797 15.9999C0.591797 13.3467 1.24731 10.8447 2.40924 8.6416H2.41013L6.09227 9.3061L7.70526 12.9089C7.36767 13.8777 7.18366 14.9177 7.18366 15.9999C7.18379 17.1743 7.39992 18.2997 7.79644 19.3378Z" fill="#FBBB00"/>
<path d="M32.8167 13.011C33.0034 13.9789 33.1007 14.9784 33.1007 16C33.1007 17.1455 32.9783 18.2629 32.7453 19.3407C31.954 23.0084 29.8864 26.211 27.0223 28.4774L27.0214 28.4765L22.3836 28.2436L21.7272 24.2101C23.6277 23.113 25.1129 21.396 25.8953 19.3407H17.2036V13.011H26.0221H32.8167Z" fill="#518EF8"/>
<path d="M27.0214 28.4763L27.0223 28.4772C24.2368 30.6811 20.6983 31.9998 16.8463 31.9998C10.6563 31.9998 5.27446 28.5941 2.52905 23.5823L7.79656 19.3379C9.16924 22.944 12.7032 25.5111 16.8463 25.5111C18.6271 25.5111 20.2955 25.0372 21.7271 24.21L27.0214 28.4763Z" fill="#28B446"/>
<path d="M27.2215 3.6835L21.9558 7.927C20.4742 7.01538 18.7228 6.48875 16.8464 6.48875C12.6095 6.48875 9.00942 9.17356 7.70551 12.909L2.41031 8.64175H2.40942C5.11464 3.50769 10.5643 0 16.8464 0C20.7903 0 24.4065 1.38287 27.2215 3.6835Z" fill="#F14336"/>
</g>
<defs>
<clipPath id="clip0_1_891">
<rect width="32.5088" height="32" fill="white" transform="translate(0.591797)"/>
</clipPath>
</defs>
</svg>
