<svg width="504" height="447" viewBox="0 0 504 447" fill="none" xmlns="http://www.w3.org/2000/svg">
<path d="M180.6 335.25C156.244 335.25 136.5 352.761 136.5 374.362C136.5 383.62 144.962 391.125 155.4 391.125H348.6C359.038 391.125 367.5 383.62 367.5 374.362C367.5 352.761 347.756 335.25 323.4 335.25H180.6Z" fill="#22202A"/>
<path fill-rule="evenodd" clip-rule="evenodd" d="M380.364 63.6875C371.629 53.5745 354.927 50.3204 342.309 58.4647C340.955 59.3387 339.712 60.3506 338.606 61.4714C336.301 59.8495 333.666 58.483 330.529 57.6421C327.703 56.8847 324.758 56.5387 321.808 56.6176C316.541 56.7585 312.128 58.511 308.209 60.6255C304.565 62.5922 300.46 65.3814 295.849 68.5151L190.03 140.412C187.775 141.941 185.631 143.395 183.962 145.022C176.713 152.086 174.86 162.221 179.079 170.899L165.031 180.452C162.706 182.032 160.588 183.471 158.896 184.779C157.085 186.179 155.224 187.828 153.726 189.981C149.955 195.402 148.972 201.993 151.022 208.097C151.837 210.522 153.15 212.544 154.488 214.314C155.738 215.967 157.36 217.845 159.142 219.907L159.49 220.31C161.272 222.372 162.895 224.251 164.369 225.751C165.948 227.357 167.808 229.008 170.235 230.336C176.348 233.681 183.778 234.553 190.661 232.734C193.395 232.012 195.675 230.847 197.67 229.66C199.534 228.552 201.652 227.113 203.977 225.533L219.298 215.129C227.198 218.61 236.978 218.057 244.453 212.978L297.617 176.856C303.504 181.493 310.878 184.691 319.029 185.81C322.48 190.638 325.27 195.841 327.319 201.312C331.71 213.038 332.544 225.583 329.737 237.686C326.929 249.788 320.579 261.022 311.324 270.258C302.07 279.494 290.238 286.407 277.016 290.302C263.795 294.196 249.65 294.936 236.005 292.446C232.612 291.827 228.318 290.297 223.674 288.254C227.922 287.061 231 283.537 231 279.375C231 274.232 226.299 270.062 220.5 270.062H136.5C130.701 270.062 126 274.232 126 279.375C126 284.518 130.701 288.687 136.5 288.687H137.453C139.034 290.633 141.107 293.14 143.444 295.857C148.517 301.756 155.417 309.336 161.326 313.993C179.237 328.11 201.021 337.796 224.49 342.079C247.96 346.361 272.286 345.089 295.026 338.391C317.765 331.692 338.115 319.803 354.032 303.918C369.948 288.033 380.87 268.712 385.698 247.897C390.527 227.083 389.093 205.507 381.54 185.34C377.845 175.471 372.747 166.11 366.407 157.468C367.122 154.742 367.499 151.906 367.499 149C367.499 143.021 365.906 137.363 363.079 132.352C364.447 131.395 365.695 130.489 366.792 129.627C369.068 127.836 371.301 125.772 372.973 123.075C376.137 117.973 377.117 112.039 375.752 106.36C377.704 105.624 379.54 104.652 381.187 103.475C393.338 94.7905 394.144 79.6406 385.409 69.5276L380.364 63.6875ZM163.766 288.687C167.846 293.228 172.03 297.513 175.276 300.071C190.431 312.016 208.864 320.212 228.723 323.836C248.581 327.46 269.165 326.383 288.406 320.715C307.647 315.047 324.867 304.987 338.334 291.546C351.802 278.105 361.043 261.757 365.129 244.144C369.215 226.531 368.002 208.275 361.611 191.21C359.65 185.976 357.224 180.909 354.365 176.056C350.682 179.148 346.368 181.656 341.61 183.411C343.811 187.28 345.697 191.3 347.248 195.441C352.802 210.27 353.856 226.134 350.306 241.439C346.755 256.744 338.725 270.95 327.022 282.63C315.319 294.31 300.355 303.052 283.636 307.977C266.916 312.902 249.029 313.838 231.772 310.689C221.051 308.732 208.118 302.309 198.851 297.188C193.991 294.502 189.712 291.929 186.649 290.028C185.853 289.534 185.136 289.084 184.511 288.687H163.766ZM178.033 195.08L191.193 186.13L204.6 201.652L191.432 210.594C188.806 212.378 187.221 213.45 185.977 214.19C185.102 214.71 184.725 214.861 184.648 214.889C183.511 215.185 182.287 215.041 181.276 214.493C181.21 214.449 180.89 214.216 180.198 213.512C179.214 212.51 177.998 211.11 175.986 208.781C173.974 206.452 172.765 205.046 171.931 203.943C171.345 203.167 171.175 202.833 171.143 202.764C170.81 201.756 170.972 200.67 171.589 199.774C171.64 199.715 171.903 199.431 172.696 198.818C173.825 197.945 175.407 196.864 178.033 195.08ZM354.666 73.5239C357.259 71.8503 361.263 72.2005 363.694 75.0141L368.738 80.8542C371.169 83.6677 370.507 87.1885 368.01 88.9732C367.569 89.2884 367.225 89.3546 367.085 89.3675L367.01 89.2877L354.063 74.2988L354.026 74.2532C354.058 74.1363 354.205 73.8215 354.666 73.5239ZM304.499 149C304.499 138.713 313.901 130.375 325.499 130.375C331.686 130.375 337.237 132.736 341.095 136.527C344.462 139.835 346.499 144.196 346.499 149C346.499 151.452 345.97 153.773 345.018 155.892C341.92 162.782 334.335 167.625 325.499 167.625C318.113 167.625 311.609 164.25 307.851 159.1C305.731 156.195 304.499 152.739 304.499 149Z" fill="#22202A"/>
</svg>
