<svg width="70" height="73" viewBox="0 0 70 73" fill="none" xmlns="http://www.w3.org/2000/svg">
<path fill-rule="evenodd" clip-rule="evenodd" d="M42.2916 45.625C42.2919 45.9314 42.2037 46.2407 42.0199 46.509L34.7282 57.1549C34.2601 57.8383 33.3493 57.9966 32.6939 57.5084C32.0385 57.0202 31.8867 56.0704 32.3548 55.3869L33.4597 53.7738L26.6771 46.7004C26.3923 46.4035 26.2499 46.0142 26.2499 45.625H24.7916C22.9494 45.625 20.4489 46.54 18.4118 48.2395C16.3286 49.9775 14.5833 52.6638 14.5833 56.2708C14.5833 57.9011 14.7755 59.4895 15.4328 60.9202C16.107 62.3876 17.2116 63.5626 18.8189 64.4565C21.9063 66.1737 26.981 66.9161 34.9905 66.9167L35 66.9167C43.0149 66.9167 48.0923 66.1744 51.181 64.4565C52.7882 63.5626 53.8928 62.3876 54.5671 60.9202C55.2244 59.4895 55.4166 57.9011 55.4166 56.2709C55.4166 52.6638 53.6713 49.9776 51.5881 48.2395C49.551 46.54 47.0505 45.625 45.2083 45.625H42.2916ZM25.5208 52.4687C25.5208 51.6288 24.8678 50.9479 24.0624 50.9479C23.257 50.9479 22.6041 51.6288 22.6041 52.4687V53.2292H21.8749C21.0695 53.2292 20.4166 53.9101 20.4166 54.75C20.4166 55.5899 21.0695 56.2708 21.8749 56.2708H22.6041V57.0312C22.6041 57.8712 23.257 58.5521 24.0624 58.5521C24.8678 58.5521 25.5208 57.8712 25.5208 57.0312V56.2708H26.2499C27.0553 56.2708 27.7083 55.5899 27.7083 54.75C27.7083 53.9101 27.0553 53.2292 26.2499 53.2292H25.5208V52.4687Z" fill="#22202A"/>
<path fill-rule="evenodd" clip-rule="evenodd" d="M46.0172 15.4638C47.4459 16.457 48.6822 18.3404 49.5735 20.4505C50.4845 22.6073 51.124 25.2088 51.2228 27.8479C51.3216 30.4845 50.8826 33.2449 49.5433 35.6329C48.4675 37.5512 46.8484 39.1595 44.6044 40.2509C44.2868 40.8608 43.9372 41.4449 43.5587 41.9962C41.6562 44.7678 38.6909 47.1459 34.9999 47.1459C31.309 47.1459 28.3437 44.7678 26.4411 41.9962C26.0627 41.4449 25.713 40.8608 25.3954 40.2509C23.1514 39.1595 21.5323 37.5512 20.4565 35.6329C19.1172 33.2449 18.6782 30.4845 18.777 27.8479C18.8759 25.2088 19.5153 22.6073 20.4263 20.4505C21.3176 18.3404 22.554 16.457 23.9826 15.4638C25.8892 14.1382 27.0903 18.1598 27.7905 19.3521C28.0322 19.7885 28.5662 19.9352 28.9994 19.7119C30.8618 18.7521 32.9147 18.25 34.9999 18.25C37.0851 18.25 39.138 18.7521 41.0004 19.7119C41.4336 19.9352 41.9676 19.7885 42.2093 19.3521C42.9092 18.1604 44.1104 14.138 46.0172 15.4638ZM38.9477 21.7372C39.5172 22.3311 39.5172 23.294 38.9477 23.8879C38.6594 24.1886 38.2685 24.5944 37.7578 25.0573C38.3749 25.6922 38.9123 26.1939 39.6625 26.5851C40.5055 27.0246 41.7278 27.375 43.7499 27.375C44.5553 27.375 45.2082 28.0559 45.2082 28.8959C45.2082 29.1634 45.142 29.4149 45.0256 29.6333C45.1456 30.3806 45.2082 31.151 45.2082 31.9375C45.2082 35.2044 44.1282 38.5539 42.3729 41.111C40.6299 43.6501 38.0535 45.625 34.9999 45.625C31.9463 45.625 29.3699 43.6501 27.6269 41.111C25.8717 38.5539 24.7916 35.2044 24.7916 31.9375C24.7916 31.3365 24.8281 30.7448 24.8989 30.1656C24.3559 29.9937 23.9365 29.4977 23.872 28.8722C23.786 28.0371 24.3654 27.2874 25.1662 27.1977C32.4308 26.3837 35.6812 22.9932 36.8625 21.761L36.8853 21.7372C37.4548 21.1432 38.3782 21.1432 38.9477 21.7372Z" fill="#22202A"/>
<path fill-rule="evenodd" clip-rule="evenodd" d="M23.4179 9.51489C26.983 7.55037 30.9585 6.52002 35.0001 6.52002C39.0416 6.52002 43.0171 7.55037 46.5822 9.51489C47.7723 10.1707 48.129 11.7012 47.4922 12.8516L43.4724 20.1125C42.8169 21.2964 41.4229 21.626 40.3544 21.0753C38.6926 20.2188 36.8607 19.7709 35.0001 19.7709C33.1394 19.7709 31.3075 20.2188 29.6457 21.0753C28.5772 21.626 27.1832 21.2964 26.5277 20.1125L22.5079 12.8516C21.8711 11.7012 22.2278 10.1707 23.4179 9.51489ZM25.3498 11.9015L28.7975 18.129C30.7405 17.2089 32.8549 16.7292 35.0001 16.7292C37.1452 16.7292 39.2596 17.2089 41.2026 18.129L44.6503 11.9015C41.6533 10.3651 38.3525 9.56169 35.0001 9.56169C31.6476 9.56169 28.3468 10.3651 25.3498 11.9015Z" fill="#22202A"/>
</svg>
