<svg width="100" height="88" viewBox="0 0 100 88" fill="none" xmlns="http://www.w3.org/2000/svg">
<path d="M35.8335 66C31.001 66 27.0835 69.4474 27.0835 73.7C27.0835 75.5225 28.7624 77 30.8335 77H69.1668C71.2379 77 72.9168 75.5225 72.9168 73.7C72.9168 69.4474 68.9993 66 64.1668 66H35.8335Z" fill="#22202A"/>
<path fill-rule="evenodd" clip-rule="evenodd" d="M75.4691 12.5381C73.7359 10.5472 70.4219 9.90656 67.9184 11.5099C67.6497 11.682 67.4032 11.8812 67.1837 12.1018C66.7264 11.7825 66.2035 11.5135 65.5811 11.348C65.0205 11.1989 64.4361 11.1307 63.8507 11.1463C62.8057 11.174 61.9301 11.519 61.1526 11.9353C60.4295 12.3225 59.6151 12.8716 58.7001 13.4885L37.7044 27.6427C37.2569 27.9438 36.8316 28.2299 36.5003 28.5503C35.0621 29.9409 34.6945 31.9362 35.5316 33.6446L32.7442 35.5252C32.2829 35.8363 31.8626 36.1196 31.527 36.3771C31.1677 36.6528 30.7983 36.9775 30.5012 37.4013C29.753 38.4686 29.5579 39.766 29.9647 40.9678C30.1263 41.4451 30.387 41.8431 30.6524 42.1916C30.9003 42.517 31.2223 42.8868 31.5758 43.2927L31.6449 43.3721C31.9984 43.7781 32.3204 44.1479 32.613 44.4433C32.9262 44.7594 33.2952 45.0845 33.7768 45.346C34.9896 46.0043 36.464 46.1761 37.8296 45.818C38.372 45.6758 38.8243 45.4464 39.2203 45.2129C39.5901 44.9947 40.0103 44.7114 40.4716 44.4003L43.5115 42.3521C45.079 43.0373 47.0194 42.9284 48.5026 41.9286L59.0509 34.8173C60.219 35.7303 61.6821 36.3599 63.2994 36.5801C63.9842 37.5306 64.5377 38.5549 64.9442 39.632C65.8156 41.9405 65.981 44.4102 65.4239 46.7928C64.8669 49.1754 63.6069 51.3869 61.7707 53.2052C59.9346 55.0235 57.5868 56.3844 54.9635 57.1512C52.3402 57.9179 49.5338 58.0635 46.8263 57.5733C46.1531 57.4514 45.3011 57.1503 44.3798 56.7482C45.2225 56.5132 45.8333 55.8194 45.8333 55.0001C45.8333 53.9876 44.9006 53.1667 43.75 53.1667H27.0833C25.9327 53.1667 25 53.9876 25 55.0001C25 56.0126 25.9327 56.8334 27.0833 56.8334H27.2725C27.5861 57.2164 27.9975 57.71 28.4611 58.2449C29.4678 59.4062 30.8366 60.8984 32.0092 61.8153C35.5628 64.5944 39.8852 66.5013 44.5418 67.3444C49.1983 68.1875 54.0251 67.9371 58.5368 66.6184C63.0486 65.2997 67.0864 62.9591 70.2444 59.8318C73.4024 56.7046 75.5694 52.901 76.5275 48.8032C77.4855 44.7054 77.201 40.4579 75.7024 36.4875C74.9692 34.5447 73.9578 32.7018 72.6998 31.0005C72.8417 30.4638 72.9165 29.9055 72.9165 29.3334C72.9165 28.1563 72.6003 27.0425 72.0394 26.0559C72.3108 25.8675 72.5586 25.6892 72.7762 25.5194C73.2279 25.1669 73.6709 24.7605 74.0026 24.2297C74.6303 23.2253 74.8249 22.057 74.554 20.939C74.9412 20.7941 75.3056 20.6028 75.6324 20.3711C78.0433 18.6613 78.2032 15.6788 76.47 13.6878L75.4691 12.5381ZM32.4932 56.8334C33.3027 57.7273 34.133 58.5709 34.777 59.0745C37.7839 61.426 41.4413 63.0396 45.3815 63.753C49.3216 64.4664 53.4058 64.2545 57.2234 63.1387C61.0411 62.0228 64.4577 60.0423 67.1298 57.3962C69.802 54.7501 71.6356 51.5316 72.4463 48.0642C73.257 44.5969 73.0162 41.0028 71.7482 37.6433C71.3592 36.6127 70.8778 35.6154 70.3104 34.66C69.5798 35.2687 68.7238 35.7624 67.7798 36.1078C68.2164 36.8695 68.5908 37.6609 68.8985 38.4762C70.0003 41.3955 70.2096 44.5187 69.5051 47.5317C68.8006 50.5447 67.2073 53.3415 64.8853 55.6409C62.5633 57.9403 59.5943 59.6613 56.2769 60.6309C52.9595 61.6006 49.4105 61.7847 45.9866 61.1647C43.8594 60.7796 41.2932 59.5151 39.4546 58.5069C38.4904 57.9782 37.6412 57.4715 37.0335 57.0973C36.8755 57 36.7334 56.9114 36.6093 56.8334H32.4932ZM35.324 38.405L37.9352 36.6432L40.5953 39.6989L37.9825 41.4593C37.4616 41.8106 37.147 42.0216 36.9002 42.1672C36.7266 42.2696 36.6519 42.2994 36.6365 42.3049C36.411 42.3631 36.1681 42.3348 35.9675 42.227C35.9543 42.2182 35.891 42.1723 35.7536 42.0337C35.5583 41.8366 35.317 41.5608 34.9178 41.1024C34.5186 40.6439 34.2789 40.3671 34.1134 40.1499C33.9971 39.9972 33.9632 39.9314 33.9569 39.9179C33.8908 39.7194 33.923 39.5056 34.0455 39.3291C34.0555 39.3175 34.1077 39.2617 34.2651 39.1409C34.4891 38.969 34.803 38.7563 35.324 38.405ZM70.3702 14.4746C70.8846 14.1451 71.6793 14.2141 72.1615 14.768L73.1624 15.9177C73.6446 16.4716 73.5134 17.1647 73.0179 17.5161C72.9304 17.5781 72.862 17.5912 72.8343 17.5937L72.8194 17.578L70.2505 14.6271L70.2432 14.6182C70.2496 14.5951 70.2787 14.5332 70.3702 14.4746ZM60.4165 29.3334C60.4165 27.3083 62.282 25.6667 64.5832 25.6667C65.8108 25.6667 66.9122 26.1315 67.6777 26.8779C68.3457 27.5292 68.7499 28.3876 68.7499 29.3334C68.7499 29.8162 68.6449 30.273 68.4559 30.6903C67.8413 32.0467 66.3363 33 64.5832 33C63.1177 33 61.8273 32.3356 61.0815 31.3218C60.6609 30.7499 60.4165 30.0696 60.4165 29.3334Z" fill="#22202A"/>
</svg>
