<svg width="424" height="423" viewBox="0 0 424 423" fill="none" xmlns="http://www.w3.org/2000/svg">
<path fill-rule="evenodd" clip-rule="evenodd" d="M256.167 264.375C256.169 266.15 255.634 267.943 254.521 269.498L210.354 331.185C207.519 335.145 202.002 336.063 198.032 333.234C194.062 330.405 193.143 324.901 195.978 320.941L202.671 311.593L161.587 270.607C159.863 268.886 159 266.63 159 264.375H150.167C139.008 264.375 123.862 269.677 111.524 279.525C98.9051 289.596 88.3335 305.161 88.3335 326.062C88.3335 335.509 89.4977 344.713 93.4794 353.003C97.5633 361.506 104.254 368.315 113.989 373.494C132.691 383.445 163.428 387.747 211.943 387.75L212 387.75C260.548 387.75 291.303 383.449 310.011 373.495C319.747 368.315 326.437 361.506 330.521 353.004C334.503 344.713 335.667 335.509 335.667 326.063C335.667 305.162 325.095 289.596 312.477 279.525C300.138 269.677 284.992 264.375 273.834 264.375H256.167ZM154.584 304.031C154.584 299.164 150.629 295.219 145.75 295.219C140.872 295.219 136.917 299.164 136.917 304.031V308.438H132.5C127.622 308.438 123.667 312.383 123.667 317.25C123.667 322.117 127.622 326.062 132.5 326.062H136.917V330.469C136.917 335.336 140.872 339.281 145.75 339.281C150.629 339.281 154.584 335.336 154.584 330.469V326.062H159C163.879 326.062 167.834 322.117 167.834 317.25C167.834 312.383 163.879 308.438 159 308.438H154.584V304.031Z" fill="#22202A"/>
<path fill-rule="evenodd" clip-rule="evenodd" d="M278.734 89.6051C287.387 95.3604 294.876 106.274 300.274 118.501C305.792 130.999 309.666 146.073 310.264 161.365C310.863 176.643 308.204 192.638 300.092 206.476C293.575 217.591 283.768 226.911 270.176 233.234C268.252 236.769 266.134 240.153 263.842 243.348C252.318 259.408 234.357 273.188 212 273.188C189.643 273.188 171.682 259.408 160.158 243.348C157.866 240.153 155.748 236.769 153.824 233.234C140.232 226.911 130.425 217.591 123.909 206.476C115.796 192.638 113.137 176.643 113.736 161.365C114.334 146.073 118.208 130.999 123.726 118.501C129.124 106.274 136.613 95.3604 145.266 89.6051C156.815 81.9241 164.09 105.227 168.332 112.136C169.795 114.665 173.03 115.515 175.654 114.221C186.935 108.659 199.37 105.75 212 105.75C224.63 105.75 237.065 108.659 248.346 114.221C250.97 115.515 254.205 114.665 255.668 112.136C259.908 105.231 267.183 81.9231 278.734 89.6051ZM235.912 125.956C239.362 129.398 239.362 134.978 235.912 138.419C234.166 140.161 231.798 142.513 228.705 145.195C232.443 148.874 235.698 151.781 240.242 154.048C245.348 156.595 252.752 158.625 265 158.625C269.879 158.625 273.833 162.571 273.833 167.438C273.833 168.988 273.432 170.445 272.727 171.711C273.454 176.041 273.833 180.505 273.833 185.063C273.833 203.993 267.291 223.402 256.659 238.218C246.102 252.931 230.496 264.375 212 264.375C193.504 264.375 177.898 252.931 167.341 238.218C156.709 223.402 150.167 203.993 150.167 185.063C150.167 181.58 150.388 178.151 150.817 174.795C147.528 173.799 144.987 170.925 144.597 167.301C144.076 162.462 147.585 158.117 152.436 157.597C196.439 152.881 216.126 133.235 223.282 126.094L223.42 125.956C226.87 122.515 232.463 122.515 235.912 125.956Z" fill="#22202A"/>
<path fill-rule="evenodd" clip-rule="evenodd" d="M141.846 55.134C163.44 43.7505 187.52 37.7802 212.001 37.7802C236.481 37.7802 260.561 43.7505 282.155 55.134C289.364 58.9341 291.525 67.8028 287.667 74.4684L263.319 116.542C259.348 123.402 250.905 125.312 244.433 122.121C234.367 117.158 223.271 114.562 212.001 114.562C200.73 114.562 189.634 117.158 179.568 122.121C173.096 125.312 164.653 123.402 160.683 116.542L136.334 74.4684C132.476 67.8028 134.637 58.9341 141.846 55.134ZM153.548 68.9633L174.431 105.048C186.2 99.7169 199.007 96.9374 212.001 96.9374C224.994 96.9374 237.801 99.7169 249.57 105.048L270.453 68.9633C252.3 60.0607 232.306 55.4052 212.001 55.4052C191.695 55.4052 171.701 60.0607 153.548 68.9633Z" fill="#22202A"/>
</svg>
