<svg width="179" height="168" viewBox="0 0 179 168" fill="none" xmlns="http://www.w3.org/2000/svg">
<path d="M146.285 45.8466C145.041 45.4523 143.887 45.6447 143.066 45.9063H35.4483C35.0563 45.8067 34.6061 45.7334 34.1154 45.7303C33.5746 45.7268 32.5412 45.8267 31.5925 46.5664C30.4791 47.4347 29.991 48.8182 30.3401 50.137C30.8855 52.1976 32.7918 52.7729 33.8481 52.8603L33.9224 52.907C34.26 53.1215 34.6762 53.413 35.1875 53.7939C36.0589 54.443 37.0704 55.2485 38.2834 56.2145L38.9969 56.7824C42.0192 59.1855 45.9561 62.2677 50.7211 65.2898C59.5119 70.8653 71.2696 76.3335 85.7707 77.1507V77.2555C85.7707 79.1792 87.4403 80.7387 89.4999 80.7387C91.5595 80.7387 93.2291 79.1792 93.2291 77.2555V77.148C107.354 76.3318 118.927 70.9946 127.663 65.4972C132.41 62.5096 136.365 59.4458 139.438 57.0124L140.496 56.1729C141.59 55.3044 142.527 54.5597 143.357 53.9332C143.995 53.4515 144.482 53.1086 144.845 52.8728H144.994C146.436 52.8728 148.014 52.0977 148.656 50.5369C148.989 49.7268 149.053 48.6645 148.505 47.6446C147.956 46.6229 147.034 46.0839 146.285 45.8466Z" fill="#22202A"/>
<path d="M93.2291 94.6717C93.2291 92.7479 91.5595 91.1884 89.4999 91.1884C87.4403 91.1884 85.7707 92.7479 85.7707 94.6717V112.088C85.7707 114.012 87.4403 115.571 89.4999 115.571C91.5595 115.571 93.2291 114.012 93.2291 112.088V94.6717Z" fill="#22202A"/>
<path d="M93.2291 129.504C93.2291 127.58 91.5595 126.021 89.4999 126.021C87.4403 126.021 85.7707 127.58 85.7707 129.504L85.7707 139.954H59.6666C57.607 139.954 55.9374 141.513 55.9374 143.437C55.9374 145.361 57.607 146.92 59.6666 146.92H119.333C121.393 146.92 123.062 145.361 123.062 143.437C123.062 141.513 121.393 139.954 119.333 139.954H93.2291L93.2291 129.504Z" fill="#22202A"/>
<path fill-rule="evenodd" clip-rule="evenodd" d="M90.069 30.5577C101.04 24.8195 113.762 30.2719 119.863 39.7913C120.921 41.4419 123.211 41.979 124.978 40.991C126.745 40.003 127.32 37.8639 126.262 36.2133C118.675 24.3745 101.226 15.9413 85.4585 25.0068H79.3876C77.1404 25.0068 75.1453 26.3499 74.4347 28.3412L71.2814 37.1774C70.2124 40.1727 73.2633 43.0224 76.4701 42.024L86.0382 39.0449C87.9816 38.4398 89.3666 36.8291 89.5798 34.926L90.069 30.5577ZM82.4114 31.9733H81.0003L80.4797 33.4323L82.3119 32.8618L82.4114 31.9733ZM121.045 75.8488C122.497 77.2128 122.49 79.4182 121.03 80.7748C119.295 82.3863 116.994 83.5563 114.592 84.4564C112.154 85.3696 109.367 86.094 106.454 86.7006C101.4 87.7532 95.6171 88.5183 90.1271 89.2447C89.3195 89.3516 88.5182 89.4576 87.7265 89.5636C81.4054 90.4097 75.7681 91.2451 71.7262 92.4381C69.694 93.0379 68.3819 93.6412 67.6421 94.1779C67.2956 94.4293 67.17 94.5985 67.1347 94.6557C67.1303 94.6628 67.1272 94.6683 67.125 94.6724C67.1258 94.7725 67.2926 95.7673 69.3559 97.0592C71.3123 98.2841 74.5478 99.4538 79.2109 99.9164C81.2589 100.12 82.7429 101.835 82.5254 103.748C82.3079 105.661 80.4713 107.047 78.4232 106.844C72.881 106.294 68.4058 104.851 65.203 102.846C62.1122 100.911 59.6667 98.0591 59.6667 94.6716C59.6667 91.997 61.2237 90.0134 63.067 88.6761C64.8341 87.394 67.1253 86.49 69.4789 85.7953C74.2085 84.3994 80.4719 83.497 86.6684 82.6676C87.4806 82.5589 88.2933 82.4512 89.1046 82.3438C94.6303 81.6118 100.087 80.889 104.831 79.9011C107.537 79.3375 109.896 78.7099 111.815 77.9906C113.77 77.2584 115.038 76.5156 115.771 75.8353C117.231 74.4787 119.592 74.4848 121.045 75.8488ZM95.8706 104.919C96.3399 103.046 98.346 101.883 100.351 102.321C103.084 102.919 105.816 103.786 107.933 105.215C110.205 106.749 111.875 109.031 111.875 112.088C111.875 116.908 107.847 119.509 104.335 120.941C100.709 122.418 95.9877 123.355 91.6667 124.204L91.3437 124.268C86.9355 125.134 82.8393 125.94 79.5818 127.099C76.0935 128.34 74.7566 129.584 74.392 130.606C73.7407 132.431 71.6288 133.417 69.6749 132.809C67.721 132.2 66.6651 130.228 67.3164 128.403C68.8163 124.2 73.0731 121.96 76.9267 120.589C80.7468 119.229 85.3566 118.325 89.5282 117.506C89.7299 117.466 89.9306 117.427 90.1302 117.387C94.6659 116.495 98.5679 115.69 101.352 114.556C104.249 113.375 104.417 112.492 104.417 112.088C104.417 111.724 104.33 111.379 103.564 110.861C102.642 110.239 101.052 109.629 98.6519 109.104C96.6465 108.666 95.4013 106.792 95.8706 104.919Z" fill="#22202A"/>
</svg>
